<?xml version="1.0" encoding="UTF-8"?>
<svg id="Layer_1" xmlns="http://www.w3.org/2000/svg" version="1.1" viewBox="0 0 989.13 423.91">
  <!-- Generator: Adobe Illustrator 29.0.1, SVG Export Plug-In . SVG Version: 2.1.0 Build 192)  -->
  <defs>
    <style>
      .st0 {
        fill: #1cdeb0;
      }
    </style>
  </defs>
  <path class="st0" d="M538.51,389.56c-9.93,0-19.93-.64-29.97-1.93-50.69-6.5-86.61-43.71-112.24-75.4-46.55-57.56-80.39-66.18-116.69-70.93-8.41-1.1-16.87-1.6-25.29-1.47-1.15,15.25-6.23,48.72-28.45,69.66-13.97,13.17-32.02,19.09-53.65,17.63-16.76-1.13-30.71-11.67-36.39-27.48-5.66-15.75-1.63-32.67,10.52-44.16,9.39-8.88,22.67-16.73,39.49-23.34,15-5.9,30.75-9.86,46.79-11.85-6.22-48.04-37.13-82.51-92.03-102.58-45.34-16.57-90.88-16.77-92.63-16.77-.03,0-.04,0-.05,0l-.13-21c2.02,0,49.99-.11,99.49,17.86,62.91,22.84,99.44,64.53,106.33,121.04,9.56-.15,19.17.39,28.72,1.64,39.35,5.15,78.93,15.03,130.29,78.54,24.6,30.42,55.55,62.26,98.58,67.77,27.43,3.52,54.51,1.75,80.49-5.25,32.29-8.7,63.13-25.61,91.68-50.25,32.65-28.19,51.49-67.52,54.12-108.33-58.94-11.33-100.96-28.99-124.9-52.52-23.86-23.44-25.65-48.35-22.95-65.11,4.47-27.78,27.01-48.66,54.81-50.79,39.78-3.05,74.67,28.53,100.86,91.31.29.7.58,1.4.87,2.11,7.51,18.62,11.6,37.98,12.47,57.31,12.2,1.81,24.63,3.07,37.13,3.76,72.38,4.03,125.49,3.03,142.05-2.69l6.86,19.85c-25.09,8.67-95.46,6.86-150.08,3.81-12.2-.68-24.35-1.87-36.3-3.56-3.5,45.55-24.76,89.29-61.21,120.75-30.96,26.72-64.58,45.1-99.94,54.63-19.11,5.15-38.75,7.73-58.66,7.73ZM233.08,241.42c-13.57,1.85-26.86,5.29-39.56,10.28-14.3,5.62-25.32,12.03-32.74,19.05-6.08,5.75-8.02,13.91-5.19,21.8,2.86,7.96,9.61,13.06,18.05,13.63,15.75,1.06,28.11-2.83,37.78-11.91,15.65-14.7,20.29-39.41,21.66-52.85ZM649.59,55.35c-1.17,0-2.34.04-3.52.14-18.08,1.38-32.75,15.03-35.68,33.19-2.78,17.28,2.92,33.02,16.94,46.79,20.43,20.07,57.44,35.56,110.07,46.08-1.16-15.44-4.68-30.86-10.68-45.73-.25-.63-.51-1.25-.77-1.87-15.11-36.22-40.46-78.59-76.36-78.59Z"/>
</svg>